Coordinates
version=1
nRows=11
nColumns=36
inDegrees=yes

Units are S.I. units (second, meters, Newtons, ...)
If the header above contains a line with 'inDegrees', this indicates whether rotational values are in degrees (yes) or radians (no).

endheader
time	pelvis_tilt	pelvis_list	pelvis_rotation	pelvis_tx	pelvis_ty	pelvis_tz	hip_flexion_r	hip_adduction_r	hip_rotation_r	knee_angle_r	knee_angle_r_beta	ankle_angle_r	subtalar_angle_r	mtp_angle_r	hip_flexion_l	hip_adduction_l	hip_rotation_l	knee_angle_l	knee_angle_l_beta	ankle_angle_l	subtalar_angle_l	mtp_angle_l	lumbar_extension	lumbar_bending	lumbar_rotation	arm_flex_r	arm_add_r	arm_rot_r	elbow_flex_r	pro_sup_r	arm_flex_l	arm_add_l	arm_rot_l	elbow_flex_l	pro_sup_l
      5.25833330	    -10.17289659	     -6.06413366	      5.72004888	      0.33289426	      0.98143539	     -0.06998250	     26.65643547	     -3.07706128	     -1.25228495	     28.28337954	      0.49363810	     -3.79802007	     -8.94818334	     -7.49999987	     30.79748819	    -12.97864588	     -1.94823963	     34.42880701	      0.60089604	      0.72326331	     -6.21191601	     -7.49999987	     -9.99987372	      2.14656012	     -3.66060650	     -7.23566009	    -23.47663214	     15.32069567	     23.06561966	     65.02398522	    -10.19247121	    -16.81587920	      2.04147657	     11.62213308	     48.63921979
      5.26250000	    -10.49624661	     -5.87117383	      5.51606395	      0.33311340	      0.97385784	     -0.07786489	     27.60485441	     -3.51184860	     -2.04446614	     29.96082298	      0.52291501	     -0.72327495	     -8.49981701	     -7.49999987	     31.59090934	    -12.76724090	     -2.07140125	     36.01302584	      0.62854587	      2.55858545	     -6.20004796	     -7.49999987	     -9.78957807	      2.03852464	     -3.31187433	     -7.14206895	    -23.63750726	     15.48694136	     22.38765016	     64.75391358	    -10.04830586	    -16.67680175	      0.90501407	     10.82174705	     49.00245535
      5.26666670	    -10.62456285	     -5.86034378	      5.14602320	      0.32961383	      0.96529989	     -0.07273707	     28.98531914	     -3.47054077	     -2.57053743	     32.32647965	      0.56420351	      2.09812000	     -8.96096223	     -7.49999987	     32.52899758	    -13.04220542	     -2.20787855	     37.56102882	      0.65556362	      4.58342332	     -6.12831820	     -7.49999987	    -10.39603320	      1.81817118	     -4.10375462	     -5.23165973	    -23.65526915	     18.51257126	     21.00266354	     65.09855803	    -10.86817815	    -16.44863934	     -4.39364372	     11.84788972	     48.79981615
      5.27083330	    -10.72315283	     -5.72154443	      4.96538754	      0.33310332	      0.95951313	     -0.07656204	     29.84729190	     -3.87911680	     -3.67647132	     34.36683118	      0.59981436	      4.92853065	     -9.31303217	     -7.49999987	     32.85752776	    -12.86800949	     -2.15468396	     38.42946678	      0.67072073	      6.50604942	     -5.97586412	     -7.49999987	    -10.71914798	      1.67430806	     -3.74465034	     -4.84315024	    -23.46623721	     18.30873106	     19.95928573	     64.86231283	    -10.41297394	    -16.38571112	     -4.97490944	     11.25900859	     48.87949647
      5.27500000	    -11.05908900	     -5.71263644	      4.86996091	      0.32936813	      0.94545660	     -0.07122945	     31.22549425	     -4.02194142	     -4.50445858	     36.56307150	      0.63814598	      8.13541679	    -10.14923986	     -7.49999987	     34.06425832	    -13.04631226	     -1.80613470	     40.04334093	      0.69888814	      8.46939190	     -5.78466235	     -7.49999987	    -10.90825101	      1.47740198	     -3.49153761	     -4.38681378	    -23.28396822	     18.15157349	     19.00745342	     64.41315167	    -10.30205060	    -16.72515663	     -6.53256196	     11.08715889	     49.20802502
      5.27916670	    -11.48976020	     -5.56470120	      4.75815972	      0.33314052	      0.93956718	     -0.07526426	     32.11150547	     -4.45662381	     -5.56970634	     38.31033588	      0.66864150	     10.75322185	    -10.22149049	     -7.49999987	     34.99973194	    -12.84252707	     -1.38933261	     41.39882299	      0.72254577	     10.74177933	     -4.73584991	     -7.49999987	    -10.81888610	      1.16671035	     -3.31529511	     -4.24985098	    -23.09407112	     18.05940367	     18.14092404	     64.28989461	    -10.35207774	    -16.85556754	     -7.20208611	     10.74170197	     49.15934632
      5.28333330	    -11.87692331	     -5.49387509	      4.90294526	      0.32945324	      0.93331251	     -0.07068144	     33.12013854	     -4.60002168	     -6.26075515	     39.90521750	      0.69647743	     13.29881614	    -10.29410628	     -7.49999987	     36.10530026	    -12.88182747	     -1.17139382	     42.61673528	      0.74380235	     12.61131956	     -3.48829670	     -7.49999987	    -11.10970219	      0.85466136	     -3.10704737	     -3.93043458	    -22.42439397	     17.95159565	     17.23855435	     64.13206237	    -10.11078372	    -17.33809610	     -8.09586940	     10.64023852	     49.11904100
      5.28750000	    -12.24698504	     -5.50132637	      4.84797910	      0.32943988	      0.92889277	     -0.07029556	     34.04598398	     -4.55830272	     -6.60403032	     41.12341543	      0.71773900	     15.26295561	    -10.36268621	     -7.49999987	     37.62586541	    -13.37114057	     -1.15140180	     44.72507466	      0.78059981	     13.94380638	     -2.77957591	     -7.49999987	    -11.45921873	      0.81387777	     -2.83952012	     -3.75188608	    -22.13113086	     17.62911704	     16.39691293	     63.74606295	    -10.08523407	    -17.67073241	     -9.35859513	     10.52920745	     49.37840214
      5.29166670	    -12.22951176	     -5.44416011	      4.88967818	      0.32988924	      0.92274164	     -0.07071791	     34.77358637	     -4.45650455	     -6.42687929	     42.60818265	      0.74365308	     16.58748190	    -11.55319119	     -7.49999987	     38.80911802	    -13.86441334	     -1.50263796	     47.03700124	      0.82095054	     15.17180997	     -1.45572097	     -7.49999987	    -12.02259039	      0.65922065	     -2.79439522	     -3.36168342	    -21.73422486	     17.43905185	     15.53003546	     63.52675527	    -10.22409806	    -18.04381042	    -10.73030295	     10.18921603	     49.26140126
      5.29583330	    -12.37929542	     -5.35777137	      4.74402555	      0.32957226	      0.91092782	     -0.07056399	     36.13576290	     -4.18680401	     -5.50767724	     45.00470613	      0.78548030	     17.56879720	    -13.58034412	     -7.49999987	     40.22151046	    -14.19416367	     -1.57486619	     49.61688210	      0.86597796	     16.55619466	     -0.87829850	     -7.49999987	    -12.34706292	      0.37602440	     -3.97782708	     -1.94561031	    -21.62923569	     19.84710221	     13.67204967	     62.79146509	    -11.75225608	    -17.35906221	    -22.02030258	     12.37599452	     50.52493326
      5.30000000	    -12.68740923	     -5.34917549	      4.63483759	      0.33018084	      0.90552576	     -0.07039584	     37.42751221	     -3.74485946	     -4.44531231	     46.99439120	      0.82020686	     18.54390544	    -15.47576800	     -7.49999987	     41.70756681	    -14.47488185	     -1.60056476	     51.99863823	      0.90754744	     17.68408822	     -0.35979545	     -7.49999987	    -12.56154425	      0.05770116	     -3.92543319	     -2.04256819	    -21.31381089	     19.71409354	     13.17956390	     62.49584747	    -11.61892193	    -17.74923153	    -22.22459561	     11.65045097	     51.39393556
